<?xml version="1.0" standalone="no"?><!DOCTYPE svg PUBLIC "-//W3C//DTD SVG 1.1//EN" "http://www.w3.org/Graphics/SVG/1.1/DTD/svg11.dtd"><svg t="1545183391277" class="icon" style="" viewBox="0 0 1024 1024" version="1.1" xmlns="http://www.w3.org/2000/svg" p-id="2274" xmlns:xlink="http://www.w3.org/1999/xlink" width="32" height="32"><defs><style type="text/css"></style></defs><path d="M559.428571 548.571429q0 7.428571-5.714286 13.142857l-266.285714 266.285714q-5.714286 5.714286-13.142857 5.714286t-13.142857-5.714286l-28.571429-28.571429q-5.714286-5.714286-5.714286-13.142857t5.714286-13.142857l224.571429-224.571429-224.571429-224.571429q-5.714286-5.714286-5.714286-13.142857t5.714286-13.142857l28.571429-28.571429q5.714286-5.714286 13.142857-5.714286t13.142857 5.714286l266.285714 266.285714q5.714286 5.714286 5.714286 13.142857zm219.428571 0q0 7.428571-5.714286 13.142857l-266.285714 266.285714q-5.714286 5.714286-13.142857 5.714286t-13.142857-5.714286l-28.571429-28.571429q-5.714286-5.714286-5.714286-13.142857t5.714286-13.142857l224.571429-224.571429-224.571429-224.571429q-5.714286-5.714286-5.714286-13.142857t5.714286-13.142857l28.571429-28.571429q5.714286-5.714286 13.142857-5.714286t13.142857 5.714286l266.285714 266.285714q5.714286 5.714286 5.714286 13.142857z" p-id="2275" fill="#333333"></path></svg>