<?xml version="1.0" encoding="UTF-8"?>
<svg width="44px" height="44px" viewBox="0 0 44 44" version="1.1" xmlns="http://www.w3.org/2000/svg" xmlns:xlink="http://www.w3.org/1999/xlink">
    <!-- Generator: Sketch 52.2 (67145) - http://www.bohemiancoding.com/sketch -->
    <title>选_购物车_slice</title>
    <desc>Created with Sketch.</desc>
    <defs>
        <polygon id="path-1" points="0.529852632 0.857073684 6.61922105 0.857073684 6.61922105 6.94736842 0.529852632 6.94736842"></polygon>
        <polygon id="path-3" points="0.379326316 0.857073684 6.46985263 0.857073684 6.46985263 6.94736842 0.379326316 6.94736842"></polygon>
        <linearGradient x1="50%" y1="0%" x2="50%" y2="100%" id="linearGradient-5">
            <stop stop-color="#FFF400" offset="0%"></stop>
            <stop stop-color="#F4A700" offset="100%"></stop>
        </linearGradient>
    </defs>
    <g id="Page-1" stroke="none" stroke-width="1" fill="none" fill-rule="evenodd">
        <g id="画板" transform="translate(-259.000000, -1246.000000)">
            <g id="选-购物车" transform="translate(259.000000, 1246.000000)">
                <g id="Group-3" transform="translate(10.421053, 36.600937)">
                    <mask id="mask-2" fill="white">
                        <use xlink:href="#path-1"></use>
                    </mask>
                    <g id="Clip-2"></g>
                    <path d="M6.61922105,3.90349474 C6.61922105,2.22338947 5.25290526,0.857073684 3.57511579,0.857073684 C1.89616842,0.857073684 0.529852632,2.22338947 0.529852632,3.90233684 C0.529852632,5.58012632 1.89616842,6.9476 3.57511579,6.9476 C5.25290526,6.9476 6.61922105,5.58012632 6.61922105,3.90349474" id="Fill-1" fill="#F4A800" mask="url(#mask-2)"></path>
                </g>
                <g id="Group-6" transform="translate(32.421053, 36.600937)">
                    <mask id="mask-4" fill="white">
                        <use xlink:href="#path-3"></use>
                    </mask>
                    <g id="Clip-5"></g>
                    <path d="M6.46985263,3.90349474 C6.46985263,2.22338947 5.10353684,0.857073684 3.42574737,0.857073684 C1.7468,0.857073684 0.379326316,2.22338947 0.379326316,3.90349474 C0.379326316,5.58012632 1.7468,6.9476 3.42574737,6.9476 C5.10353684,6.9476 6.46985263,5.58012632 6.46985263,3.90349474" id="Fill-4" fill="#F4A800" mask="url(#mask-4)"></path>
                </g>
                <path d="M1.48442105,2.96895789 L3.47368421,2.96895789 C4.21010526,2.96895789 4.91642105,3.63243158 5.01368421,4.41632632 L6.51894737,13.1225368 L9.16589474,31.7600105 C9.43684211,33.9947474 11.3797895,35.7443263 13.5913684,35.7443263 L38.9423158,35.7443263 C39.7609474,35.7443263 40.4267368,35.0773789 40.4267368,34.2587474 C40.4267368,33.4424316 39.7609474,32.7766421 38.9423158,32.7766421 L13.5913684,32.7766421 C12.8804211,32.7766421 12.2018947,32.1340105 12.1104211,31.3732737 L11.8881053,29.8112737 L36.7087368,27.9401158 C38.9249474,27.9401158 40.8644211,26.2264316 41.1295789,24.0391684 L43.5901053,9.96958947 C43.7695789,8.49327368 43.3573684,7.06443158 42.4611579,6.05243158 C41.6795789,5.1678 40.6027368,4.68148421 39.4332632,4.68148421 L12.4103158,4.68148421 C12.3883158,4.68148421 12.3709474,4.69306316 12.3501053,4.69306316 L8.07284211,4.69306316 L7.95010526,3.98674737 C7.678,1.74969474 5.71073684,0.000115789474 3.47368421,0.000115789474 L1.48442105,0.000115789474 C0.665789474,0.000115789474 0,0.665905263 0,1.48453684 C0,2.30316842 0.665789474,2.96895789 1.48442105,2.96895789" id="Fill-7" fill="url(#linearGradient-5)"></path>
            </g>
        </g>
    </g>
</svg>