<?xml version="1.0" encoding="UTF-8"?>
<svg width="44px" height="44px" viewBox="0 0 44 44" version="1.1" xmlns="http://www.w3.org/2000/svg" xmlns:xlink="http://www.w3.org/1999/xlink">
    <!-- Generator: Sketch 52.2 (67145) - http://www.bohemiancoding.com/sketch -->
    <title>购物车_slice</title>
    <desc>Created with Sketch.</desc>
    <defs>
        <polygon id="path-1" points="0.194526316 1.02384615 40.6132737 1.02384615 40.6132737 35.8526667 0.194526316 35.8526667"></polygon>
    </defs>
    <g id="Page-1" stroke="none" stroke-width="1" fill="none" fill-rule="evenodd" opacity="0.597879464">
        <g id="画板" transform="translate(-259.000000, -1246.000000)">
            <g id="购物车" transform="translate(259.000000, 1246.000000)">
                <g id="Group-3">
                    <mask id="mask-2" fill="white">
                        <use xlink:href="#path-1"></use>
                    </mask>
                    <g id="Clip-2"></g>
                    <path d="M39.1288526,32.9610769 L13.7779053,32.9610769 C13.0669579,32.9610769 12.3884316,32.3349231 12.2969579,31.5936923 L9.63958947,13.3607692 L8.13664211,4.90938462 C7.86453684,2.72969231 5.89843158,1.02384615 3.66022105,1.02384615 L1.67095789,1.02384615 C0.852326316,1.02384615 0.186536842,1.67369231 0.186536842,2.47133333 C0.186536842,3.26897436 0.852326316,3.91769231 1.67095789,3.91769231 L3.66022105,3.91769231 C4.3978,3.91769231 5.10295789,4.56415385 5.20022105,5.32794872 L6.70548421,13.8097949 L9.35243158,31.9705128 C9.62453684,34.1479487 11.5674842,35.8526667 13.7779053,35.8526667 L39.1288526,35.8526667 C39.9474842,35.8526667 40.6132737,35.2028205 40.6132737,34.4051795 C40.6132737,33.6097949 39.9474842,32.9610769 39.1288526,32.9610769" id="Fill-1" fill="#323333" mask="url(#mask-2)"></path>
                </g>
                <path d="M42.6478105,6.92210256 C41.8662316,6.06015385 40.7905474,5.58630769 39.6199158,5.58630769 L12.5969684,5.58630769 C11.7783368,5.58630769 11.1125474,6.23615385 11.1125474,7.03379487 C11.1125474,7.8314359 11.7783368,8.48015385 12.5969684,8.48015385 L39.6199158,8.48015385 C39.9383368,8.48015385 40.2104421,8.59974359 40.4246526,8.83779487 C40.7453895,9.19205128 40.9086526,9.76969231 40.8403368,10.3146154 L38.3821263,24.0234359 C38.2906526,24.7545128 37.5750737,25.3569744 36.7877053,25.3614872 L11.4714947,27.2162564 C11.0766526,27.2444615 10.7177053,27.4193333 10.4583368,27.7126667 C10.1989684,28.0048718 10.0727579,28.3783077 10.1017053,28.7618974 C10.1572842,29.5144103 10.8068632,30.1044615 11.5803368,30.1044615 C11.6150737,30.1044615 11.6521263,30.1022051 11.6903368,30.0999487 L36.8953895,28.2485641 C39.1104421,28.2485641 41.0510737,26.5788205 41.3173895,24.4487692 L43.7779158,10.7388205 C43.9562316,9.30035897 43.5440211,7.90815385 42.6478105,6.92210256" id="Fill-4" fill="#323333"></path>
                <path d="M14.1832842,43.4565436 C15.8610737,43.4565436 17.2273895,42.1241333 17.2273895,40.4904923 C17.2273895,38.8534667 15.8610737,37.5221846 14.1832842,37.5221846 C12.5043368,37.5221846 11.1380211,38.8534667 11.1380211,40.4893641 C11.1380211,42.1241333 12.5043368,43.4565436 14.1832842,43.4565436" id="Fill-6" fill="#323333"></path>
                <path d="M36.0340316,43.4565436 C37.7118211,43.4565436 39.0781368,42.1241333 39.0781368,40.4904923 C39.0781368,38.8534667 37.7118211,37.5221846 36.0340316,37.5221846 C34.3550842,37.5221846 32.9876105,38.8534667 32.9876105,40.4904923 C32.9876105,42.1241333 34.3550842,43.4565436 36.0340316,43.4565436" id="Fill-8" fill="#323333"></path>
            </g>
        </g>
    </g>
</svg>