<?xml version="1.0" encoding="UTF-8"?>
<svg width="46px" height="46px" viewBox="0 0 46 46" version="1.1" xmlns="http://www.w3.org/2000/svg" xmlns:xlink="http://www.w3.org/1999/xlink">
    <!-- Generator: Sketch 52.2 (67145) - http://www.bohemiancoding.com/sketch -->
    <title>leimuxiquanbu_slice</title>
    <desc>Created with Sketch.</desc>
    <defs>
        <polygon id="path-1" points="0.00591549296 0.0833207547 20.9992113 0.0833207547 20.9992113 45.9036604 0.00591549296 45.9036604"></polygon>
    </defs>
    <g id="Page-1" stroke="none" stroke-width="1" fill="none" fill-rule="evenodd">
        <g id="画板" transform="translate(-583.000000, -661.000000)">
            <g id="leimuxiquanbu" transform="translate(583.000000, 661.000000)">
                <g id="分组">
                    <mask id="mask-2" fill="white">
                        <use xlink:href="#path-1"></use>
                    </mask>
                    <g id="Clip-2"></g>
                    <path d="M13.7304507,0.0833207547 L7.26885915,0.0833207547 C3.26278873,0.0833207547 0,3.27477568 0,7.19326205 L0,13.5135849 C0,17.4316855 3.26278873,20.6234298 7.26885915,20.6234298 L20.9992113,20.6234298 L20.9992113,7.19326205 C20.9992113,3.27477568 17.7361268,0.0833207547 13.7304507,0.0833207547 Z M19.3839859,19.0435178 L7.26885915,19.0435178 C4.15119718,19.0435178 1.61522535,16.5629895 1.61522535,13.5135849 L1.61522535,7.19326205 C1.61522535,4.14376101 4.15119718,1.6632327 7.26885915,1.6632327 L13.7304507,1.6632327 C16.8480141,1.6632327 19.3839859,4.14376101 19.3839859,7.19326205 L19.3839859,19.0435178 Z" id="Fill-1" stroke="#19C6B0" fill="#19C6B0" mask="url(#mask-2)"></path>
                    <path d="M0,32.4733962 L0,38.7933333 C0,42.7118197 3.26278873,45.9036604 7.26885915,45.9036604 L13.7304507,45.9036604 C17.7361268,45.9036604 20.9992113,42.7118197 20.9992113,38.7933333 L20.9992113,25.3635514 L7.26885915,25.3635514 C3.26278873,25.3635514 0,28.5549099 0,32.4733962 Z M19.3839859,38.7933333 C19.3839859,41.8427379 16.8480141,44.3237484 13.7304507,44.3237484 L7.26885915,44.3237484 C4.15119718,44.3237484 1.61522535,41.8427379 1.61522535,38.7933333 L1.61522535,32.4733962 C1.61522535,29.4239916 4.15119718,26.9433669 7.26885915,26.9433669 L19.3839859,26.9433669 L19.3839859,38.7933333 Z" id="Fill-3" stroke="#51ADFE" fill="#51ADFE" mask="url(#mask-2)"></path>
                </g>
                <path d="M38.7304734,0 L32.2690336,0 C28.2628127,0 25,3.26291128 25,7.26913217 L25,21 L38.7304734,21 C42.7366943,21 46,17.7367929 46,13.7309664 L46,7.26913217 C46,3.26291128 42.7366943,0 38.7304734,0 Z M44.384714,13.7309664 C44.384714,16.8486469 41.8481539,19.384714 38.7304734,19.384714 L26.6151874,19.384714 L26.6151874,7.26913217 C26.6151874,4.1513531 29.1513531,1.61528602 32.2690336,1.61528602 L38.7304734,1.61528602 C41.8481539,1.61528602 44.384714,4.1513531 44.384714,7.26913217 L44.384714,13.7309664 Z" id="Fill-4" stroke="#FF587D" fill="#FF6780"></path>
                <path d="M38.7304734,25 L25,25 L25,38.7304734 C25,42.7366943 28.2628127,46 32.2690336,46 L38.7304734,46 C42.7366943,46 46,42.7366943 46,38.7304734 L46,32.2690336 C46,28.2628127 42.7366943,25 38.7304734,25 Z M44.384714,38.7304734 C44.384714,41.8481539 41.8481539,44.384714 38.7304734,44.384714 L32.2690336,44.384714 C29.1513531,44.384714 26.6151874,41.8481539 26.6151874,38.7304734 L26.6151874,26.6151874 L38.7304734,26.6151874 C41.8481539,26.6151874 44.384714,29.1513531 44.384714,32.2690336 L44.384714,38.7304734 Z" id="Fill-5" stroke="#FFBB19" fill="#FFBB19"></path>
            </g>
        </g>
    </g>
</svg>