<?xml version="1.0" encoding="UTF-8"?>
<svg width="24px" height="24px" viewBox="0 0 24 24" version="1.1" xmlns="http://www.w3.org/2000/svg" xmlns:xlink="http://www.w3.org/1999/xlink">
    <!-- Generator: Sketch 52.2 (67145) - http://www.bohemiancoding.com/sketch -->
    <title>电话_slice</title>
    <desc>Created with Sketch.</desc>
    <defs>
        <polygon id="path-1" points="1.0890467e-16 0 24 0 24 24 1.0890467e-16 24"></polygon>
    </defs>
    <g id="Page-1" stroke="none" stroke-width="1" fill="none" fill-rule="evenodd">
        <g id="画板" transform="translate(-557.000000, -586.000000)">
            <g id="电话" transform="translate(557.000000, 586.000000)">
                <g id="iconzhengli-">
                    <mask id="mask-2" fill="white">
                        <use xlink:href="#path-1"></use>
                    </mask>
                    <g id="Clip-2"></g>
                    <path d="M9.45196716,14.395917 C7.77583603,12.7681526 6.67587048,11.0319533 6.07347414,9.94690947 C5.73309767,9.32292483 4.73786335,7.88515733 3.42833945,8.42762956 C2.11895941,8.97035017 2.5379802,12.1441679 6.728332,16.701809 C10.1851337,20.4724406 15.0563823,23.1038854 18.3039613,23.0767146 C20.7657204,23.0495935 22.8346416,20.7437015 23.0440561,18.9261885 C23.1750181,17.759682 22.913142,17.0271632 22.2846588,16.701809 C22.1012833,16.6202966 19.1680418,15.9149982 17.701517,15.5624235 C17.177765,15.45379 16.6540129,15.5624235 16.2349921,15.9149982 L15.0041126,16.9458991 C14.4801687,17.4071073 13.7207715,17.4612502 13.1183751,17.1356477 C12.2541028,16.701809 10.9709535,15.8336845 9.45196716,14.395917 Z" id="Fill-1" fill="#FFDF5C" mask="url(#mask-2)"></path>
                    <path d="M18.4241981,24 C14.9489401,24 9.90606751,21.3374243 6.3786594,17.6305728 C1.85814958,12.87935 -0.388852493,8.36325296 0.0551893732,4.89124046 C0.264316299,3.14225664 1.04814756,1.83709121 2.38089513,0.949454437 C3.16472638,0.427388265 4.15763672,0.0879639936 4.99380951,0.00971620708 C5.72529923,-0.0425764493 6.32636571,0.114062522 6.79657834,0.53178238 C7.03187604,0.740714007 7.24081159,1.00174709 7.37142621,1.31488164 C7.73738637,2.0981243 8.31204285,3.82096178 8.75632394,5.15227354 C9.01760103,5.935564 8.86076779,6.79705444 8.36438439,7.44961326 L7.03187604,9.19859708 C6.79657834,9.51192282 6.77059895,9.90344855 6.95336373,10.2427294 C7.55443021,11.3131515 8.59949071,12.87935 10.1673446,14.3413456 C11.6305154,15.6987559 12.8847507,16.4818552 13.6687255,16.8734287 C14.0083235,17.056214 14.426386,17.0039213 14.7138338,16.7690346 L15.9418983,15.7770037 C16.5429648,15.2810838 17.3006253,15.1244449 18.0584293,15.2810838 C22.526454,16.2990699 22.6832394,16.3775088 22.7877311,16.4296103 C23.4410913,16.7428882 24.172581,17.5000324 23.9636455,19.327264 C23.7023684,21.4941111 21.2983895,23.9740449 18.4765396,24 L18.4241981,24 Z M5.28125737,1.52381327 L5.12442414,1.52381327 C4.68019089,1.57605812 3.89640748,1.75870002 3.21702008,2.22866474 C2.25023266,2.85507723 1.70150772,3.79481546 1.54472233,5.10017209 C1.15283063,8.10221988 3.26917024,12.1744985 7.47610928,16.6123956 C10.663728,19.980014 15.3670504,22.5120971 18.4241981,22.5120971 L18.4765396,22.5120971 C20.5667085,22.4859507 22.3175185,20.5020802 22.4743039,19.1967235 C22.526454,18.7008037 22.526454,18.0482449 22.1607331,17.8393132 C21.899456,17.7610655 20.61905,17.4477397 17.7186877,16.7951809 C17.4312399,16.7167419 17.143792,16.7951809 16.9086857,16.977775 L15.6806212,17.9698059 C14.9227694,18.5964574 13.8515381,18.7008037 12.9632151,18.230839 C12.1009194,17.7610655 10.7160695,16.9256735 9.14821565,15.4636779 C7.42376774,13.8452346 6.27402417,12.1485434 5.62080754,10.9737272 C5.12442414,10.112189 5.20274506,9.04195811 5.82998231,8.25885885 L7.18866143,6.53583016 C7.39759698,6.27479707 7.44993851,5.96166253 7.34544682,5.64838459 C6.74442818,3.84710811 6.27402417,2.54179928 6.01274709,1.96763165 C5.96059693,1.83709121 5.90825539,1.75870002 5.82998231,1.70659857 C5.72529923,1.60201325 5.59468461,1.52381327 5.28125737,1.52381327 Z" id="Fill-3" fill="#606060" mask="url(#mask-2)"></path>
                </g>
            </g>
        </g>
    </g>
</svg>