<?xml version="1.0" encoding="UTF-8"?>
<svg width="22px" height="24px" viewBox="0 0 22 24" version="1.1" xmlns="http://www.w3.org/2000/svg" xmlns:xlink="http://www.w3.org/1999/xlink">
    <!-- Generator: Sketch 52.2 (67145) - http://www.bohemiancoding.com/sketch -->
    <title>垃圾桶_slice</title>
    <desc>Created with Sketch.</desc>
    <g id="Page-1" stroke="none" stroke-width="1" fill="none" fill-rule="evenodd">
        <g id="画板" transform="translate(-693.000000, -464.000000)" fill="#999999">
            <g id="垃圾桶" transform="translate(693.000000, 464.000000)">
                <path d="M21.2022224,3.90181933 L17.2840364,3.90181933 L17.2840364,2.33482531 C17.2840364,1.05145946 16.2397088,0.00868405664 14.9457455,1.0125234e-13 L7.04627021,1.0125234e-13 C6.42202652,0.00420813317 5.82493728,0.254056476 5.38633897,0.694877554 C4.94785638,1.13573689 4.70392922,1.73122599 4.70813354,2.35051017 L4.70813354,3.91735117 L0.789947525,3.91735117 C0.353624947,3.91735117 0,4.26823297 0,4.70082906 C0,5.13361643 0.353624947,5.4843452 0.789947525,5.4843452 L21.2022224,5.4843452 C21.6427493,5.4843452 22,5.13002038 22,4.69306314 C22,4.25595287 21.6427493,3.90181933 21.2022224,3.90181933 Z M15.7041028,3.90181933 L6.22480964,3.90181933 L6.22480964,2.33482531 C6.23325683,1.90563398 6.58206032,1.55968718 7.01475717,1.55130917 L14.914271,1.55130917 C15.1209765,1.55115614 15.3188105,1.63470671 15.4619499,1.7824887 C15.6050894,1.93042371 15.6811912,2.12992748 15.6725898,2.33482531 L15.7041028,3.90181933 Z M9.43196573,16.327748 L9.43196573,7.78776253 C9.43196573,7.35512818 9.07834079,7.00424639 8.64201821,7.00424639 C8.20581135,7.00424639 7.85203211,7.35512818 7.85203211,7.78776253 L7.85203211,16.327748 C7.85203211,16.7603823 8.20581135,17.1111111 8.64201821,17.1111111 C9.07834079,17.1111111 9.43196573,16.7603823 9.43196573,16.327748 Z M14.1401378,16.327748 L14.1401378,7.78776253 C14.1401378,7.35512818 13.7863586,7.00424639 13.3501517,7.00424639 C12.9138292,7.00424639 12.5602042,7.35512818 12.5602042,7.78776253 L12.5602042,16.327748 C12.5602042,16.7603823 12.9138292,17.1111111 13.3501517,17.1111111 C13.7863586,17.1111111 14.1401378,16.7603823 14.1401378,16.327748 Z" id="Fill-1"></path>
                <path d="M18.1867962,6.20529756 C17.9776879,6.20529756 17.7769763,6.28845403 17.6290713,6.43656203 C17.4811664,6.58463146 17.3979698,6.78561864 17.3979698,6.99505261 L17.3979698,18.7647018 C17.3979698,20.5098691 15.9853236,21.9244163 14.2427415,21.9244163 L7.5534324,21.9244163 C5.81085029,21.9244163 4.39820404,20.5098691 4.39820404,18.7647018 L4.39820404,6.99505261 C4.39820404,6.55886684 4.04492692,6.20529756 3.60937769,6.20529756 C3.17363587,6.20529756 2.82051282,6.55886684 2.82051282,6.99505261 L2.82051282,18.7647018 C2.82051282,21.3823564 4.93955923,23.5042735 7.5534324,23.5042735 L14.2585334,23.5042735 C15.5137996,23.5042735 16.7176071,23.0048333 17.6051523,22.1160696 C18.4928516,21.2273058 18.991453,20.0216913 18.991453,18.7647018 L18.991453,6.99505261 C18.991453,6.78291876 18.906138,6.57954025 18.7547666,6.43096941 C18.6034336,6.28228286 18.3987933,6.2009006 18.1867962,6.20529756 Z" id="Fill-2"></path>
            </g>
        </g>
    </g>
</svg>