<?xml version="1.0" encoding="UTF-8"?>
<svg width="44px" height="44px" viewBox="0 0 44 44" version="1.1" xmlns="http://www.w3.org/2000/svg" xmlns:xlink="http://www.w3.org/1999/xlink">
    <!-- Generator: Sketch 52.2 (67145) - http://www.bohemiancoding.com/sketch -->
    <title>group_3_slice</title>
    <desc>Created with Sketch.</desc>
    <defs>
        <polygon id="path-1" points="0 0 43.2977241 0 43.2977241 43.4835789 0 43.4835789"></polygon>
        <linearGradient x1="50%" y1="0%" x2="50%" y2="100%" id="linearGradient-3">
            <stop stop-color="#FFF600" offset="0%"></stop>
            <stop stop-color="#F4A600" offset="100%"></stop>
        </linearGradient>
    </defs>
    <g id="Page-1" stroke="none" stroke-width="1" fill="none" fill-rule="evenodd">
        <g id="画板" transform="translate(-61.000000, -1246.000000)">
            <g id="Group-3" transform="translate(61.000000, 1246.000000)">
                <mask id="mask-2" fill="white">
                    <use xlink:href="#path-1"></use>
                </mask>
                <g id="Clip-2"></g>
                <path d="M42.1920632,18.9782421 L24.3199579,1.10613684 C22.8448,-0.369021053 20.4537474,-0.369021053 18.9774316,1.10613684 L1.10532632,18.9782421 C0.000694736842,20.0840316 -0.2772,21.6506632 0.276273684,23.1246632 C0.921221053,24.5060316 2.21111579,25.4265579 3.77658947,25.4265579 L4.14595789,25.4265579 L4.14595789,38.4169789 C4.14595789,41.2028737 6.42469474,43.4839263 9.21290526,43.4839263 L15.5697474,43.4839263 L16.5829053,43.4839263 C17.3424842,43.4839263 17.9642737,42.8621368 17.9642737,42.1014 L17.9642737,28.2830842 L25.3331158,28.2830842 L25.3331158,42.1014 C25.3331158,42.8621368 25.9560632,43.4839263 26.7168,43.4839263 L28.0970105,43.4839263 L34.0856421,43.4839263 C36.8495368,43.4839263 39.1525895,41.2723474 39.1525895,38.4169789 L39.1525895,31.0469789 C39.1525895,30.4448737 39.0032211,26.6840316 39.0935368,25.4694 C39.2764842,25.4694 39.5208,25.4265579 39.5208,25.4265579 C41.0862737,25.4265579 42.3761684,24.5060316 43.0222737,23.1246632 C43.5734316,21.6506632 43.2978526,20.0840316 42.1920632,18.9782421" id="Fill-1" fill="url(#linearGradient-3)" mask="url(#mask-2)"></path>
            </g>
        </g>
    </g>
</svg>