<?xml version="1.0" encoding="UTF-8"?>
<svg width="44px" height="44px" viewBox="0 0 44 44" version="1.1" xmlns="http://www.w3.org/2000/svg" xmlns:xlink="http://www.w3.org/1999/xlink">
    <!-- Generator: Sketch 52.2 (67145) - http://www.bohemiancoding.com/sketch -->
    <title>首页_slice</title>
    <desc>Created with Sketch.</desc>
    <defs>
        <polygon id="path-1" points="0 1.05848205 43.2978441 1.05848205 43.2978441 25.8327385 0 25.8327385"></polygon>
    </defs>
    <g id="Page-1" stroke="none" stroke-width="1" fill="none" fill-rule="evenodd" opacity="0.6">
        <g id="画板" transform="translate(-61.000000, -1246.000000)">
            <g id="首页" transform="translate(61.000000, 1246.000000)">
                <path d="M37.7708737,29.9610667 C37.0332947,29.9610667 36.3895053,30.5906051 36.3895053,31.3070154 L36.3895053,38.4891692 C36.3895053,39.7459897 35.3763474,40.7331692 34.0852947,40.7331692 L28.0978211,40.7331692 L28.0978211,28.6151179 C28.0978211,27.0886564 26.8079263,25.9220923 25.3339263,25.9220923 L17.9650842,25.9220923 C16.3984526,25.9220923 15.2000316,27.1789128 15.2000316,28.6151179 L15.2000316,40.7331692 L9.21255789,40.7331692 C7.92266316,40.7331692 6.90950526,39.7459897 6.90950526,38.4891692 L6.90950526,25.0251692 C6.90950526,24.3065026 6.26455789,23.6780923 5.52697895,23.6780923 C4.79055789,23.6780923 4.14561053,24.3065026 4.14561053,25.0251692 L4.14561053,38.4891692 C4.14561053,41.1810667 6.44866316,43.4261949 9.21255789,43.4261949 L15.5682421,43.4261949 L16.5814,43.4261949 C17.3189789,43.4261949 17.9650842,42.7977846 17.9650842,42.0791179 L17.9650842,28.6151179 L25.3339263,28.6151179 L25.3339263,42.0791179 C25.3339263,42.7977846 25.9788737,43.4261949 26.7152947,43.4261949 L28.0978211,43.4261949 L34.0852947,43.4261949 C36.8491895,43.4261949 39.1522421,41.2713231 39.1522421,38.4891692 L39.1522421,31.3070154 C39.1522421,30.5906051 38.5072947,29.9610667 37.7708737,29.9610667" id="Fill-21" fill="#323333"></path>
                <mask id="mask-2" fill="white">
                    <use xlink:href="#path-1"></use>
                </mask>
                <g id="Clip-19"></g>
                <path d="M39.5212632,25.8327385 L38.0472632,25.8327385 C37.3096842,25.8327385 36.6647368,25.2032 36.6647368,24.4856615 C36.6647368,23.7681231 37.3096842,23.1385846 38.0472632,23.1385846 L39.5212632,23.1385846 C40.1662105,23.1385846 40.3503158,22.6906872 40.4429474,22.5113026 C40.5344211,22.3307897 40.6258947,21.8828923 40.2576842,21.4349949 L22.3855789,4.02002051 C22.0173684,3.66125128 21.3724211,3.66125128 20.9127368,4.02002051 L3.03947368,21.4349949 C2.57978947,21.8828923 2.76389474,22.3307897 2.85536842,22.5113026 C2.948,22.6906872 3.22357895,23.1385846 3.77705263,23.1385846 L5.61926316,23.1385846 C6.35568421,23.1385846 7.00178947,23.7681231 7.00178947,24.4856615 C7.00178947,25.2032 6.35568421,25.8327385 5.61926316,25.8327385 L3.77705263,25.8327385 C2.21042105,25.8327385 0.921684211,24.9346872 0.275578947,23.5887385 C-0.276736842,22.1514051 1.08420217e-19,20.6260718 1.10463158,19.5497641 L18.9778947,2.13478974 C20.4507368,0.699712821 22.8475789,0.699712821 24.3204211,2.13478974 L42.1925263,19.5497641 C43.2983158,20.6260718 43.5738947,22.1514051 43.0215789,23.5887385 C42.3766316,24.9346872 41.0878947,25.8327385 39.5212632,25.8327385" id="Fill-18" fill="#323333" mask="url(#mask-2)"></path>
            </g>
        </g>
    </g>
</svg>