<?xml version="1.0" encoding="UTF-8"?>
<svg width="37px" height="37px" viewBox="0 0 37 37" version="1.1" xmlns="http://www.w3.org/2000/svg" xmlns:xlink="http://www.w3.org/1999/xlink">
    <!-- Generator: Sketch 52.2 (67145) - http://www.bohemiancoding.com/sketch -->
    <title>修改_slice</title>
    <desc>Created with Sketch.</desc>
    <g id="Page-1" stroke="none" stroke-width="1" fill="none" fill-rule="evenodd">
        <g id="画板" fill="#57504C" fill-rule="nonzero">
            <g id="修改">
                <path d="M1.18033475,37 C0.868941451,37 0.571702395,36.8773585 0.345234543,36.6556604 C0.0715858884,36.3820755 -0.0510841981,35.9858491 0.0196870057,35.6037736 L2.42590793,22.8632075 C2.60519498,21.9198113 3.05813069,21.0613208 3.73753424,20.3820755 L13.6549389,10.4669811 C14.1173108,10.004717 14.8627675,10.004717 15.3251393,10.4669811 C15.7875112,10.9292453 15.7875112,11.6745283 15.3251393,12.1367925 L5.40773465,22.0518868 C5.06331479,22.3962264 4.83684694,22.8254717 4.74720342,23.3018868 L2.66181195,34.3396226 L13.7021197,32.254717 C14.1786458,32.1650943 14.6127092,31.9339623 14.952411,31.5943396 L32.6782385,13.8726415 C33.9474021,12.6037736 34.645678,10.9056604 34.645678,9.0990566 C34.645678,7.29245283 33.9474021,5.59433962 32.6782385,4.3254717 C30.0455497,1.69339623 25.7662509,1.69339623 23.1335621,4.3254717 L20.9821176,6.47641509 C20.5197457,6.93867925 19.774289,6.93867925 19.3119171,6.47641509 C18.8495453,6.01415094 18.8495453,5.26886792 19.3119171,4.80660377 L21.4633617,2.65566038 C23.1760249,0.943396226 25.4642938,0 27.9035413,0 C30.3427888,0 32.6310577,0.943396226 34.3437208,2.65566038 C36.056384,4.36792453 37,6.65566038 37,9.09433962 C37,11.5330189 36.056384,13.8207547 34.3437208,15.5330189 L16.6226114,33.259434 C15.9432078,33.9386792 15.0845172,34.3915094 14.1409012,34.5707547 L1.39736644,36.9764151 C1.32659523,36.995283 1.25110595,37 1.18033475,37 Z M18.835391,30.3301887 C18.5334339,30.3301887 18.2314768,30.2169811 18.0002908,29.9858491 L7.31383907,19.2924528 C6.85146721,18.8301887 6.85146721,18.0849057 7.31383907,17.6226415 C7.77621094,17.1603774 8.52166761,17.1603774 8.98403948,17.6226415 L19.6752093,28.3113208 C20.1375812,28.7735849 20.1375812,29.5188679 19.6752093,29.9811321 C19.4393053,30.2122642 19.1373482,30.3301887 18.835391,30.3301887 Z" id="Shape"></path>
            </g>
        </g>
    </g>
</svg>