<?xml version="1.0" encoding="UTF-8"?>
<svg width="51px" height="47px" viewBox="0 0 51 47" version="1.1" xmlns="http://www.w3.org/2000/svg" xmlns:xlink="http://www.w3.org/1999/xlink">
    <!-- Generator: Sketch 52.2 (67145) - http://www.bohemiancoding.com/sketch -->
    <title>转身_copy_slice</title>
    <desc>Created with Sketch.</desc>
    <defs>
        <path d="M0,1.44907065 C0,2.24973469 2.19575933,2.90076644 4.90619955,2.90076644 C7.61663976,2.90076644 9.81239909,2.24973469 9.81239909,1.44907065 C9.81239909,0.648406615 7.61663976,0 4.90619955,0 C2.19575933,0 0,0.648406615 0,1.44907065" id="path-1"></path>
        <linearGradient x1="43.948428%" y1="-42.6565071%" x2="56.5222004%" y2="149.864045%" id="linearGradient-3">
            <stop stop-color="#61B8FE" offset="0%"></stop>
            <stop stop-color="#A3E7FF" offset="100%"></stop>
        </linearGradient>
        <path d="M0,5.42084379 C0,8.4156003 0.676339528,10.8416876 1.51763992,10.8416876 C2.35619096,10.8416876 3.03802918,8.4156003 3.03802918,5.42084379 C3.03802918,2.42784787 2.35619096,0 1.51763992,0 C0.676339528,0 0,2.42784787 0,5.42084379" id="path-4"></path>
        <linearGradient x1="-39.8010679%" y1="5.75794901%" x2="139.695457%" y2="94.2517327%" id="linearGradient-6">
            <stop stop-color="#5AB3FE" offset="0%"></stop>
            <stop stop-color="#A9EBFF" offset="100%"></stop>
        </linearGradient>
        <path d="M10.5729657,6.4906477 C9.11092066,6.4906477 7.75495889,7.25913264 6.99673553,8.5175866 L0.847306101,16.1182653 C-0.0822825347,17.6620783 0.0693621367,19.6294818 1.22403771,21.0111124 L19.4594794,45.4267615 C21.1309709,47.4270121 24.1897052,47.4270121 25.8611966,45.4267615 L44.0973184,21.0111124 C45.251314,19.6294818 45.4022786,17.6620783 44.47269,16.1182653 L38.3239406,8.5175866 C37.5657172,7.25913264 36.2090754,6.4906477 34.7463504,6.4906477 L10.5729657,6.4906477 Z" id="path-7"></path>
        <linearGradient x1="38.2418456%" y1="-6.84103333%" x2="70.5840382%" y2="92.3116639%" id="linearGradient-9">
            <stop stop-color="#51ADFE" offset="0%"></stop>
            <stop stop-color="#ADEDFF" offset="100%"></stop>
        </linearGradient>
    </defs>
    <g id="Page-1" stroke="none" stroke-width="1" fill="none" fill-rule="evenodd">
        <g id="画板" transform="translate(-119.000000, -660.000000)">
            <g id="转身-copy" transform="translate(119.000000, 660.000000)">
                <g id="Group-36" transform="translate(40.300864, 3.901999)">
                    <mask id="mask-2" fill="white">
                        <use xlink:href="#path-1"></use>
                    </mask>
                    <g id="Clip-35"></g>
                    <path d="M4.90619955,2.90076644 C7.61663976,2.90076644 9.81239909,2.24973469 9.81239909,1.44907065 C9.81239909,0.648406615 7.61663976,0 4.90619955,0 C2.19575933,0 0,0.648406615 0,1.44907065 C0,2.24973469 2.19575933,2.90076644 4.90619955,2.90076644 Z" id="Fill-34" fill="url(#linearGradient-3)" mask="url(#mask-2)"></path>
                </g>
                <g id="Group-39" transform="translate(44.000000, 0.000000)">
                    <mask id="mask-5" fill="white">
                        <use xlink:href="#path-4"></use>
                    </mask>
                    <g id="Clip-38"></g>
                    <path d="M0,5.42084379 C0,8.4156003 0.676339528,10.8416876 1.51763992,10.8416876 C2.35619096,10.8416876 3.03802918,8.4156003 3.03802918,5.42084379 C3.03802918,2.42784787 2.35619096,0 1.51763992,0 C0.676339528,0 0,2.42784787 0,5.42084379" id="Fill-37" fill="url(#linearGradient-6)" mask="url(#mask-5)"></path>
                </g>
                <mask id="mask-8" fill="white">
                    <use xlink:href="#path-7"></use>
                </mask>
                <g id="Clip-30"></g>
                <path d="M10.5729657,6.4906477 C9.11092066,6.4906477 7.75495889,7.25913264 6.99673553,8.5175866 L0.847306101,16.1182653 C-0.0822825347,17.6620783 0.0693621367,19.6294818 1.22403771,21.0111124 L19.4594794,45.4267615 C21.1309709,47.4270121 24.1897052,47.4270121 25.8611966,45.4267615 L44.0973184,21.0111124 C45.251314,19.6294818 45.4022786,17.6620783 44.47269,16.1182653 L38.3239406,8.5175866 C37.5657172,7.25913264 36.2090754,6.4906477 34.7463504,6.4906477 L10.5729657,6.4906477 Z" id="Fill-29" fill="url(#linearGradient-9)" mask="url(#mask-8)"></path>
                <polygon id="Fill-32" fill="#FFFFFF" mask="url(#mask-8)" points="9.35797227 26.7086446 7.64431948 19.6232546 3.83348209 19.6232546"></polygon>
            </g>
        </g>
    </g>
</svg>