<?xml version="1.0" encoding="UTF-8"?>
<svg width="38px" height="46px" viewBox="0 0 38 46" version="1.1" xmlns="http://www.w3.org/2000/svg" xmlns:xlink="http://www.w3.org/1999/xlink">
    <!-- Generator: Sketch 52.2 (67145) - http://www.bohemiancoding.com/sketch -->
    <title>我的_copy_slice</title>
    <desc>Created with Sketch.</desc>
    <g id="Page-1" stroke="none" stroke-width="1" fill="none" fill-rule="evenodd" opacity="0.597879464">
        <g id="画板" transform="translate(-455.000000, -1245.000000)" fill="#323333">
            <path d="M482.132233,1274.03961 L465.134861,1274.03961 C464.371172,1274.03961 463.751996,1274.67049 463.751996,1275.44981 C463.751996,1276.22793 464.371172,1276.85881 465.134861,1276.85881 L482.132233,1276.85881 C482.895922,1276.85881 483.515098,1276.22793 483.515098,1275.44981 C483.515098,1274.67049 482.895922,1274.03961 482.132233,1274.03961 M482.132233,1266.11232 L465.134861,1266.11232 C464.371172,1266.11232 463.751996,1266.74319 463.751996,1267.52252 C463.751996,1268.30064 464.371172,1268.93152 465.134861,1268.93152 L482.132233,1268.93152 C482.895922,1268.93152 483.515098,1268.30064 483.515098,1267.52252 C483.515098,1266.74319 482.895922,1266.11232 482.132233,1266.11232 M482.132233,1258.18502 L465.134861,1258.18502 C464.371172,1258.18502 463.751996,1258.8147 463.751996,1259.59403 C463.751996,1260.37215 464.371172,1261.00303 465.134861,1261.00303 L482.132233,1261.00303 C482.895922,1261.00303 483.515098,1260.37215 483.515098,1259.59403 C483.515098,1258.8147 482.895922,1258.18502 482.132233,1258.18502 M470.441913,1247.8204 C469.677049,1247.8204 469.057873,1247.18833 469.057873,1246.4102 C469.057873,1245.63208 469.677049,1245 470.441913,1245 L477.555972,1245 C478.320836,1245 478.940012,1245.63208 478.940012,1246.4102 C478.940012,1247.18833 478.320836,1247.8204 477.555972,1247.8204 L470.441913,1247.8204 Z M488.552979,1245.01891 C490.999134,1245.01891 493,1247.0576 493,1249.5488 L493,1285.59512 C493,1288.08631 490.999134,1290.125 488.552979,1290.125 L459.447021,1290.125 C457.002041,1290.125 455,1288.08631 455,1285.59512 L455,1249.5488 C455,1247.0576 457.002041,1245.01891 459.447021,1245.01891 L462.443032,1245.01891 C463.207897,1245.01891 463.827072,1245.6486 463.827072,1246.42792 C463.827072,1247.20604 463.207897,1247.83692 462.443032,1247.83692 L462.438333,1247.83692 L459.447021,1247.83692 C459.002906,1247.83692 458.58229,1248.01649 458.262715,1248.3421 C457.943141,1248.66892 457.766905,1249.09629 457.766905,1249.5488 L457.766905,1285.59512 C457.766905,1286.04523 457.943141,1286.475 458.262715,1286.79942 C458.58229,1287.12623 459.002906,1287.30579 459.447021,1287.30579 L488.552979,1287.30579 C488.997094,1287.30579 489.41771,1287.12623 489.737285,1286.79942 C490.056859,1286.475 490.233095,1286.04523 490.233095,1285.59512 L490.233095,1249.5488 C490.233095,1249.09629 490.056859,1248.66892 489.737285,1248.3421 C489.416535,1248.01649 488.997094,1247.83692 488.552979,1247.83692 L485.561667,1247.83692 L485.558142,1247.83692 C484.794453,1247.83692 484.174103,1247.20604 484.174103,1246.42792 C484.174103,1245.6486 484.794453,1245.01891 485.558142,1245.01891 L488.552979,1245.01891 Z" id="我的-copy"></path>
        </g>
    </g>
</svg>