<?xml version="1.0" encoding="UTF-8"?>
<svg width="38px" height="46px" viewBox="0 0 38 46" version="1.1" xmlns="http://www.w3.org/2000/svg" xmlns:xlink="http://www.w3.org/1999/xlink">
    <!-- Generator: Sketch 52.2 (67145) - http://www.bohemiancoding.com/sketch -->
    <title>选_订单_slice</title>
    <desc>Created with Sketch.</desc>
    <defs>
        <polygon id="path-1" points="0 0.371372308 37.2428788 0.371372308 37.2428788 43.9630769 0 43.9630769"></polygon>
        <linearGradient x1="50%" y1="0%" x2="50%" y2="100%" id="linearGradient-3">
            <stop stop-color="#FEF100" offset="0%"></stop>
            <stop stop-color="#F4A800" offset="100%"></stop>
        </linearGradient>
        <polygon id="path-4" points="0.435963636 0.371372308 11.4732364 0.371372308 11.4732364 2.99851323 0.435963636 2.99851323"></polygon>
    </defs>
    <g id="Page-1" stroke="none" stroke-width="1" fill="none" fill-rule="evenodd">
        <g id="画板" transform="translate(-456.000000, -1245.000000)">
            <g id="选-订单" transform="translate(456.000000, 1245.000000)">
                <g id="Group-3" transform="translate(0.000000, 0.785898)">
                    <mask id="mask-2" fill="white">
                        <use xlink:href="#path-1"></use>
                    </mask>
                    <g id="Clip-2"></g>
                    <path d="M32.8855455,0.370562462 L29.9491818,0.370562462 C29.9284545,0.370562462 29.9111818,0.382131692 29.889303,0.383288615 C29.8685758,0.382131692 29.849,0.370562462 29.8282727,0.370562462 L26.4842727,0.370562462 C26.0697273,0.370562462 25.7116061,0.665577846 25.6298485,1.07512862 L25.2521515,2.98058092 C25.1715455,3.38897477 24.8134242,3.68399015 24.3977273,3.68399015 L12.7063939,3.68399015 C12.2688182,3.68399015 11.8980303,3.35889477 11.8427576,2.92273477 L11.606697,1.13181785 C11.5514242,0.696814769 11.1806364,0.370562462 10.7430606,0.370562462 L7.46354545,0.370562462 C7.43015152,0.370562462 7.39675758,0.380974769 7.36336364,0.385602462 C7.33918182,0.384445538 7.31960606,0.370562462 7.29427273,0.370562462 L4.35906061,0.370562462 C1.96160606,0.370562462 -0.000575757576,2.34080246 -0.000575757576,4.74951631 L-0.000575757576,39.5844702 C-0.000575757576,41.993184 1.96160606,43.963424 4.35906061,43.963424 L32.8855455,43.963424 C35.2818485,43.963424 37.2428788,41.993184 37.2428788,39.5844702 L37.2428788,4.74951631 C37.2428788,2.34080246 35.2818485,0.370562462 32.8855455,0.370562462" id="Fill-1" fill="url(#linearGradient-3)" mask="url(#mask-2)"></path>
                </g>
                <path d="M26.6635636,29.2220258 L10.0045939,29.2220258 C9.25610909,29.2220258 8.64810909,29.8317243 8.64810909,30.5837243 C8.64810909,31.3357243 9.25610909,31.9454228 10.0045939,31.9454228 L26.6635636,31.9454228 C27.410897,31.9454228 28.018897,31.3357243 28.018897,30.5837243 C28.018897,29.8317243 27.410897,29.2220258 26.6635636,29.2220258 M26.6635636,21.5597243 L10.0045939,21.5597243 C9.25610909,21.5597243 8.64810909,22.1694228 8.64810909,22.9225797 C8.64810909,23.6745797 9.25610909,24.2842782 10.0045939,24.2842782 L26.6635636,24.2842782 C27.410897,24.2842782 28.018897,23.6745797 28.018897,22.9225797 C28.018897,22.1694228 27.410897,21.5597243 26.6635636,21.5597243 M26.6635636,13.8985797 L10.0045939,13.8985797 C9.25610909,13.8985797 8.64810909,14.5071212 8.64810909,15.2602782 C8.64810909,16.0122782 9.25610909,16.6219766 10.0045939,16.6219766 L26.6635636,16.6219766 C27.410897,16.6219766 28.018897,16.0122782 28.018897,15.2602782 C28.018897,14.5071212 27.410897,13.8985797 26.6635636,13.8985797" id="Fill-4" fill="#FFFFFF"></path>
                <g id="Group-8" transform="translate(12.666667, 0.785898)">
                    <mask id="mask-5" fill="white">
                        <use xlink:href="#path-4"></use>
                    </mask>
                    <g id="Clip-7"></g>
                    <path d="M10.1846909,2.99851323 L1.72566061,2.99851323 C1.01632727,2.99851323 0.435963636,2.41658092 0.435963636,1.70391631 L0.435963636,1.66689477 C0.435963636,0.953073231 1.01632727,0.371140923 1.72566061,0.371140923 L10.1846909,0.371140923 C10.8928727,0.371140923 11.4732364,0.953073231 11.4732364,1.66689477 L11.4732364,1.70391631 C11.4732364,2.41658092 10.8928727,2.99851323 10.1846909,2.99851323" id="Fill-6" fill="#FEF000" mask="url(#mask-5)"></path>
                </g>
            </g>
        </g>
    </g>
</svg>