<?xml version="1.0" encoding="UTF-8"?>
<svg width="44px" height="46px" viewBox="0 0 44 46" version="1.1" xmlns="http://www.w3.org/2000/svg" xmlns:xlink="http://www.w3.org/1999/xlink">
    <!-- Generator: Sketch 52.2 (67145) - http://www.bohemiancoding.com/sketch -->
    <title>促销_copy_slice</title>
    <desc>Created with Sketch.</desc>
    <defs>
        <path d="M36.3663607,0.405074627 L20.2414426,4.78537313 L20.3438689,4.87462687 L1.04878689,25.8252239 C0.312327869,26.6305672 0.477508197,27.9117015 1.41593443,28.7019403 L15.3264262,40.3014925 C16.2648525,41.0841791 17.6266885,41.0773134 18.371082,40.2719701 L37.6654426,19.3213731 L37.7671475,19.4106269 L40.2095082,3.61546269 C40.4771148,1.88668657 38.8700328,0.306208955 37.1158033,0.305522388 C36.8669508,0.305522388 36.6159344,0.337791045 36.3663607,0.405074627" id="path-1"></path>
        <linearGradient x1="41.1842482%" y1="13.8788558%" x2="71.0477145%" y2="90.1927599%" id="linearGradient-3">
            <stop stop-color="#FF6BA8" offset="0%"></stop>
            <stop stop-color="#ED7E64" offset="100%"></stop>
        </linearGradient>
    </defs>
    <g id="Page-1" stroke="none" stroke-width="1" fill="none" fill-rule="evenodd">
        <g id="画板" transform="translate(-353.000000, -661.000000)">
            <g id="促销-copy" transform="translate(353.000000, 661.000000)">
                <path d="M41.328623,3.83962687 C41.0465902,1.86574627 38.4715082,0.71780597 36.694918,1.77580597 L22.4800328,10.2391194 L22.605541,10.2988507 L10.1831148,35.5185224 C9.70560656,36.4872687 10.2379344,37.6791493 11.3732787,38.1858358 L28.1163607,45.6584328 C29.2509836,46.1651194 30.558,45.793 31.0282951,44.8242537 L43.45,19.5970299 L43.5747869,19.6567612 L41.328623,3.83962687 Z" id="Fill-40" fill="#F4B1A6"></path>
                <mask id="mask-2" fill="white">
                    <use xlink:href="#path-1"></use>
                </mask>
                <g id="Clip-43"></g>
                <path d="M36.3663607,0.405074627 L20.2414426,4.78537313 L20.3438689,4.87462687 L1.04878689,25.8252239 C0.312327869,26.6305672 0.477508197,27.9117015 1.41593443,28.7019403 L15.3264262,40.3014925 C16.2648525,41.0841791 17.6266885,41.0773134 18.371082,40.2719701 L37.6654426,19.3213731 L37.7671475,19.4106269 L40.2095082,3.61546269 C40.4771148,1.88668657 38.8700328,0.306208955 37.1158033,0.305522388 C36.8669508,0.305522388 36.6159344,0.337791045 36.3663607,0.405074627" id="Fill-42" fill="url(#linearGradient-3)" mask="url(#mask-2)"></path>
                <g id="Group-49" mask="url(#mask-2)" fill="#FFFFFF">
                    <g transform="translate(8.655738, 4.119403)">
                        <path d="M19.8125508,14.1666269 C19.1467803,13.4958507 18.5913705,12.9445373 18.1297311,12.5051343 C17.6673705,12.0650448 17.0492066,11.4917612 16.2665836,10.7914627 C15.4839607,10.0836119 14.9588459,9.62155224 14.7013377,9.40528358 L14.3255344,9.10044776 C14.912682,8.47429851 15.6174033,7.71426866 16.4382557,6.82035821 C17.198518,5.99304478 17.8635672,5.26322388 18.4427803,4.62952239 L18.9202885,5.08402985 L19.3581246,5.48635821 C19.4526164,5.57629851 19.5463869,5.658 19.6480918,5.74038806 C19.1467803,6.23952239 18.7399607,6.65695522 18.418977,7.00641791 C18.066977,7.39364179 17.8238951,7.65453731 17.7070426,7.78910448 C17.5815344,7.92298507 17.3932721,8.13925373 17.142977,8.43722388 L18.066977,9.2940597 C18.3641574,8.98853731 18.7089443,8.62328358 19.092682,8.20585075 C19.2326164,8.05755224 19.586059,7.64767164 20.1645508,6.98444776 C20.5014033,7.3119403 20.9010098,7.69161194 21.3777967,8.13170149 C20.9471738,8.58620896 20.6182557,8.94391045 20.3917639,9.18970149 C20.0549115,9.55426866 19.6791082,9.97925373 19.280223,10.4481791 L20.2583213,11.3503284 L20.6810098,10.8882687 C20.806518,10.7543881 21.0647475,10.4632836 21.4484852,10.0314328 L22.1921574,9.18214925 C22.3017967,9.05513433 22.4814033,8.83955224 22.7244852,8.53402985 C23.1075016,8.91370149 23.5150426,9.2940597 23.9377311,9.68883582 C23.3347148,10.3369552 22.6696656,11.044806 21.9577311,11.826806 L20.3369443,13.5933433 L19.8125508,14.1666269 Z M15.350518,19.0096716 C14.748223,18.3910746 14.2548459,17.8919403 13.8638951,17.5115821 C13.1519607,16.8188358 12.4313705,16.1405075 11.7035672,15.4855224 C10.9750426,14.8291642 10.3727475,14.3005075 9.89523934,13.8981791 C10.2313705,13.5404776 10.5372066,13.2205373 10.7954361,12.9369851 C10.9671082,12.7502388 11.2181246,12.4756119 11.5391082,12.1096716 L12.9716328,13.4807463 L15.2416,15.589194 L15.8128787,16.0965672 C16.2435016,15.6413731 16.5248131,15.3509552 16.6496,15.2095224 C17.300223,14.5092239 17.7777311,13.9654627 18.090059,13.5933433 L19.280223,14.7399104 C18.6303213,15.440209 18.0121574,16.1034328 17.4250098,16.7371343 C16.6344525,17.6008358 15.9376656,18.3608657 15.350518,19.0096716 Z M8.58028852,20.879194 L9.7228459,19.6351343 C8.4468459,19.1208955 7.75005902,18.8380299 7.6173377,18.7782985 C7.86763279,19.3000896 8.06382951,19.7319403 8.2203541,20.0745373 L8.58028852,20.879194 Z M8.58028852,26.362806 L8.2831082,25.5286269 L6.09104262,20.0374627 L5.83281311,19.4339701 C5.75491148,19.2547761 5.64455082,19.0096716 5.49596066,18.6814925 C5.93451803,18.2194328 6.25550164,17.8768358 6.45169836,17.6605672 C6.79504262,17.2808955 7.11602623,16.9307463 7.40599344,16.6101194 L9.69904262,17.4896119 L14.1690098,19.1133433 L14.998518,19.3968955 C14.5678951,19.851403 14.3096656,20.1342687 14.2158951,20.2310746 C14.0124852,20.4548955 13.7073705,20.7892537 13.3156984,21.2293433 C12.7444197,20.9608955 12.0476328,20.6780299 11.2181246,20.3725075 L9.36291148,22.3917015 C9.64422295,23.0322687 9.96592787,23.7332537 10.3330754,24.4781791 C9.87143607,24.9697612 9.58940328,25.2752836 9.48048525,25.3865075 C9.29222295,25.580806 8.9871082,25.9082985 8.58028852,26.362806 Z M4.93261639,30.155403 C4.30651803,29.6933433 3.7893377,29.3356418 3.39045246,29.0747463 C3.80520656,28.888 4.14999344,28.7101791 4.42337049,28.5158806 C4.69746885,28.3298209 4.90881311,28.1430746 5.07327213,27.9645672 C5.28461639,27.7338806 5.42599344,27.5176119 5.4800918,27.3164478 C5.53491148,27.1228358 5.49596066,26.9587463 5.35530492,26.8475224 C5.30841967,26.8097612 5.25287869,26.7726866 5.19878033,26.7500299 C5.14396066,26.7280597 5.07327213,26.7129552 4.97950164,26.705403 C4.89294426,26.6978507 4.78330492,26.6978507 4.6498623,26.7205075 L3.26566557,26.8990149 C2.94396066,26.9436418 2.71746885,26.9738507 2.58402623,26.981403 C2.30992787,27.0033731 2.07550164,27.0033731 1.88002623,26.981403 C1.68382951,26.9587463 1.50350164,26.9065672 1.34769836,26.8392836 C1.18323934,26.7726866 1.03464918,26.6758806 0.893272131,26.5564179 C0.720878689,26.4149851 0.580944262,26.2433433 0.471304918,26.0497313 C0.360944262,25.8561194 0.283042623,25.6398507 0.251304918,25.4091642 C0.212354098,25.1784776 0.228222951,24.9175821 0.298190164,24.6415821 C0.3696,24.3662687 0.486452459,24.1053731 0.642977049,23.8520299 C0.807436066,23.6062388 0.987042623,23.3673134 1.19838689,23.1366269 C1.6138623,22.6821194 2.12238689,22.2427164 2.71746885,21.8033134 C2.92087869,21.9598507 3.10048525,22.0937313 3.27287869,22.2200597 C3.44527213,22.3470746 3.75038689,22.555791 4.18894426,22.8537612 C3.86002623,23.0096119 3.57799344,23.1743881 3.35150164,23.3453433 C3.12428852,23.5169851 2.94396066,23.6728358 2.80330492,23.8225075 C2.6071082,24.0305373 2.49025574,24.2392537 2.45130492,24.4404179 C2.40369836,24.6491343 2.44337049,24.7981194 2.56094426,24.9024776 C2.61504262,24.9471045 2.67779672,24.9841791 2.75641967,25.0068358 C2.82638689,25.028806 2.92881311,25.0439104 3.05432131,25.0439104 C3.1791082,25.0439104 3.32769836,25.0370448 3.5000918,25.0068358 C3.67176393,24.9841791 3.93864918,24.9395522 4.29858361,24.8722687 L4.8071082,24.7830149 C4.95569836,24.7610448 5.13602623,24.7383881 5.32428852,24.7308358 C5.51976393,24.7164179 5.7000918,24.7164179 5.86382951,24.7308358 C6.02828852,24.7459403 6.1776,24.768597 6.29445246,24.7981194 C6.41202623,24.8276418 6.52887869,24.8722687 6.63130492,24.9251343 C6.73300984,24.9773134 6.83471475,25.0439104 6.93569836,25.1262985 C7.18671475,25.3343284 7.37425574,25.5952239 7.50048525,25.9007463 C7.62527213,26.2062687 7.66422295,26.5268955 7.6173377,26.8619403 C7.56973115,27.1969851 7.46081311,27.5100597 7.28841967,27.8155821 C7.11602623,28.1135522 6.89746885,28.4115224 6.63851803,28.6868358 C6.2403541,29.1193731 5.6683541,29.603403 4.93261639,30.155403 Z" id="Fill-45"></path>
                        <path d="M23.3536131,4.7108806 C24.0965639,5.33016418 25.129482,5.52583582 26.0643016,5.2230597 C26.9991213,4.92097015 27.6937443,4.1671194 27.8856131,3.2450597 C28.0782033,2.323 27.7384656,1.37416418 26.9962361,0.754880597 C26.2540066,0.135597015 25.2203672,-0.0600746269 24.2862689,0.242701493 C23.3514492,0.544791045 22.6568262,1.29864179 22.4649574,2.22070149 C22.2723672,3.14207463 22.6121049,4.09159701 23.3536131,4.7108806" id="Fill-47"></path>
                    </g>
                </g>
            </g>
        </g>
    </g>
</svg>