<?xml version="1.0" encoding="UTF-8"?>
<svg width="135px" height="111px" viewBox="0 0 135 111" version="1.1" xmlns="http://www.w3.org/2000/svg" xmlns:xlink="http://www.w3.org/1999/xlink">
    <!-- Generator: Sketch 52.2 (67145) - http://www.bohemiancoding.com/sketch -->
    <title>灰车_slice</title>
    <desc>Created with Sketch.</desc>
    <g id="Page-1" stroke="none" stroke-width="1" fill="none" fill-rule="evenodd">
        <g id="画板" transform="translate(-66.000000, -1161.000000)">
            <g id="灰车" transform="translate(66.000000, 1161.000000)">
                <g id="diandongche">
                    <path d="M90.1782968,23.1242001 L86.9874395,45.1702841 L73.6631415,59.9354975 L60.1738501,65.3750786 L57.0958309,63.0543423 L57.0958309,50.6811922 L57.0958309,45.1702841 L11.695048,45.1702841 L7.0245816,52.9978182 L4,67.695815 L7.0245816,82.3938118 L122.964751,85.4881269 C127.654917,86.9689923 130,85.236714 130,80.2912918 C130,75.3458696 128.783754,72.4461873 126.351263,71.5922449 L113.512888,57.6392908 L106.562989,28.4291846 L103.266119,21 L90.1782968,23.1242001 Z" id="路径-6" fill="#F2F2F2"></path>
                    <path d="M10,49.6534631 L56.3846914,49.6534631 L56.9482359,40.6111139 L46.7662701,34.957414 L17.3547698,34.957414 L10,49.6534631 Z M84.6658546,6.12954982 C85.7961917,6.12954982 89.1901803,21.9583946 89.1901803,21.9583946 L102.199613,21.3919967 L96.541702,5 L84.6658546,6.12954982 Z M109.554383,33.2617369 L115.212023,50.219861 L122,48.5239133 L119.736348,33.2617369 L109.554383,33.2617369 Z M12.6336637,86.9616066 C11.1449535,94.2625665 14.2176514,101.739072 20.4104152,105.888058 C26.6042617,110.037314 34.6925596,110.037314 40.8853234,105.888058 C47.0791699,101.739072 50.1518678,94.2625665 48.6631576,86.9616066 L12.6336637,86.9616066 Z" id="Fill-1" fill="#DCDCDC"></path>
                    <g id="分组" transform="translate(0.000000, 18.000000)">
                        <path d="M89.1189379,71.8231631 C89.1189379,80.7298462 96.3337275,87.9499077 105.232094,87.9499077 C114.131273,87.9499077 121.346062,80.7298462 121.346062,71.8231631 C121.346062,62.9162092 114.131273,55.6964185 105.232094,55.6964185 C96.3337275,55.6964185 89.1189379,62.9162092 89.1189379,71.8231631 Z" id="Fill-2" fill="#DCDCDC"></path>
                        <path d="M88.8378457,70.0780554 L5.8293487,70.0780554 C4.37735471,70.0799508 3.08687375,69.1544615 2.61991984,67.7794954 C-2.06828657,54.0190031 -0.548386774,40.9067323 7.86057114,22.5220431 C10.5437976,16.6560985 16.3953307,12.8704738 22.7665731,12.8704738 L45.5861723,12.8704738 C53.5238477,12.8791385 59.956503,19.3172185 59.9659719,27.2626708 L59.9659719,43.4673969 C66.8753206,43.26432 73.4253908,40.3408246 78.1925952,35.3326769 C83.2092385,30.1395938 85.8691984,23.1079877 85.546984,15.8914462 L85.0524349,3.79862154 C85.0142886,2.87421538 85.3546293,1.97526154 85.9939178,1.30781538 C86.633477,0.641452308 87.5167936,0.264 88.4404208,0.264 L102.603788,0.264 C103.817976,0.264 104.940451,0.912221538 105.54484,1.96795077 C111.732385,12.7583754 116.022896,28.1310277 117.160251,43.42624 L117.970792,43.7931323 C122.781283,45.9795938 131.739709,50.0506092 134.816032,62.36736 C135.270541,64.1877415 134.16511,66.0311385 132.347345,66.4860308 C130.528768,66.9409231 128.686653,65.83456 128.232144,64.0141785 C125.949589,54.8778831 119.717675,52.0432 115.16501,49.9753354 C113.970842,49.4319015 112.939269,48.9632 112.07489,48.4176 C111.154238,47.8294892 110.573116,46.8352246 110.510621,45.7445662 C109.706573,31.6212431 106.02992,17.3351877 100.594749,7.05435077 L91.9723347,7.05435077 L92.3210621,15.6130954 C92.6952204,24.7569723 89.4181563,33.4310646 83.084519,40.0310646 C76.7511523,46.6310646 68.2291082,50.2704738 59.0837375,50.2704738 L56.5706814,50.2704738 C55.6711323,50.2704738 54.8078357,49.9130585 54.171523,49.2762092 C53.535481,48.6396308 53.1780962,47.7764185 53.1780962,46.8752985 L53.1780962,27.2626708 C53.1729559,23.0657477 49.7752305,19.66624 45.5829259,19.6597415 L22.7635972,19.6597415 C18.9917134,19.6906092 15.5826253,21.9117292 14.0280962,25.3502277 C6.90420842,40.9205415 5.1846493,52.1309292 8.32238477,63.2906831 L88.8378457,63.2906831 C90.6683267,63.3488985 92.122485,64.8519385 92.122485,66.6847754 C92.122485,68.5178831 90.6683267,70.01984 88.8378457,70.0780554 Z" id="Fill-4" fill="#ABABAB"></path>
                    </g>
                    <path d="M54.5529802,52.768829 L48.7106082,52.768829 C46.8407252,52.768829 45.3253262,51.2424624 45.3253262,49.3590462 C45.3253262,47.475902 46.8407252,45.9492635 48.7106082,45.9492635 L54.5529802,45.9492635 C56.4228633,45.9492635 57.9382623,47.475902 57.9382623,49.3590462 C57.9382623,51.2424624 56.4228633,52.768829 54.5529802,52.768829 Z M31.361139,52.768829 L8.38528203,52.768829 C6.51566898,52.768829 5,51.2424624 5,49.3590462 C5,47.475902 6.51566898,45.9492635 8.38528203,45.9492635 L31.361139,45.9492635 C33.2310221,45.9492635 34.7464211,47.475902 34.7464211,49.3590462 C34.7464211,51.2424624 33.2310221,52.768829 31.361139,52.768829 Z M31.5973717,111 C21.8011393,111 13.1987594,104.607371 10.1898298,95.0972887 C9.78701935,93.9276998 10.0464703,92.6286702 10.8669402,91.7065414 C11.6863302,90.7833248 12.9393084,90.3819499 14.1382906,90.6560596 C15.3372728,90.9309851 16.2948926,91.8381575 16.6388475,93.0278696 C18.7511727,99.7008626 24.7593126,104.181522 31.5973717,104.181522 C40.2672467,104.181522 47.3226399,96.934748 47.3226399,88.0289034 C47.3226399,87.2587858 47.2721536,86.5047123 47.1698311,85.7612442 C46.9481773,83.9139953 48.2381428,82.2290911 50.0688787,81.9742887 C51.8985347,81.7203022 53.5934705,82.9918665 53.8758698,84.8306854 C54.0184194,85.873825 54.0932039,86.9444299 54.0932039,88.0289034 C54.0932039,100.696142 44.0048529,111 31.5973717,111 Z M105.395926,111 C94.5869978,111 85.7959017,102.026172 85.7959017,90.9927141 C85.7959017,79.9581687 94.5869978,70.9799896 105.395926,70.9799896 C116.205664,70.9799896 125,79.9581687 125,90.9927141 C125,102.026172 116.205664,111 105.395926,111 Z M105.395926,77.7995551 C98.3205543,77.7995551 92.5664658,83.7162991 92.5664658,90.9927141 C92.5664658,98.2647782 98.3205543,104.181522 105.395926,104.181522 C112.471298,104.181522 118.229436,98.2647782 118.229436,90.9927141 C118.229436,83.7162991 112.474268,77.7995551 105.395926,77.7995551 Z M102.644288,24.5366217 C101.145627,24.535534 99.826504,23.5424303 99.4004752,22.0946527 L94.9055744,6.81956554 L65.0031048,6.81956554 C63.1334917,6.81956554 61.6178227,5.29292702 61.6178227,3.40978277 C61.6178227,1.52636659 63.1334917,0 65.0031048,0 L97.4333993,0 C98.9331394,0 100.254693,0.993103651 100.680721,2.44088126 L105.896739,20.1582094 C106.200467,21.1904715 106.002302,22.3070333 105.361099,23.1696085 C104.720975,24.0321838 103.712599,24.5387972 102.644288,24.5366217 Z" id="Fill-5" fill="#ABABAB"></path>
                    <path d="M88.1049246,25.182593 C86.5447362,25.182593 85.1405396,24.0910971 84.7988688,22.4976269 L81.0763849,5.11365026 C80.6831667,3.27786634 81.8468983,1.47054207 83.6750797,1.07671452 C85.5029912,0.681802782 87.3025651,1.85054637 87.6947038,3.68633029 L91.4171877,21.0703069 C91.6322837,22.0739844 91.3834524,23.1223843 90.7395137,23.9216943 C90.0963847,24.7199202 89.1275079,25.1836772 88.1049246,25.182593 Z M123.616552,52 L113.464397,52 C111.595193,52 110.080345,50.4786276 110.080345,48.6013739 C110.080345,46.7254754 111.595193,45.203832 113.464397,45.203832 L119.227729,45.203832 L116.777739,35.8571358 L109.234804,35.8571358 C107.365601,35.8571358 105.850753,34.3357634 105.850753,32.4585097 C105.850753,30.581256 107.365601,29.0598836 109.234804,29.0598836 L119.38696,29.0598836 C120.923938,29.0609678 122.268221,30.1017784 122.65928,31.5955042 L126.888872,47.7386395 C127.155516,48.7583086 126.936372,49.8432995 126.295402,50.6778453 C125.655511,51.51212 124.665584,52 123.616552,52 Z" id="Fill-6" fill="#ABABAB"></path>
                </g>
            </g>
        </g>
    </g>
</svg>