<?xml version="1.0" encoding="UTF-8"?>
<svg width="42px" height="45px" viewBox="0 0 42 45" version="1.1" xmlns="http://www.w3.org/2000/svg" xmlns:xlink="http://www.w3.org/1999/xlink">
    <!-- Generator: Sketch 52.2 (67145) - http://www.bohemiancoding.com/sketch -->
    <title>group_23_slice</title>
    <desc>Created with Sketch.</desc>
    <g id="Page-1" stroke="none" stroke-width="1" fill="none" fill-rule="evenodd" opacity="0.597879464">
        <g id="画板" transform="translate(-648.000000, -1246.000000)" fill="#323333">
            <g id="Group-23" transform="translate(648.000000, 1246.000000)">
                <g id="Group-17" transform="translate(0.000000, 0.402214)">
                    <path d="M35.47056,13.8365442 C35.47056,6.67449417 29.33136,0.706119167 21.25296,0.706119167 C13.82256,0.706119167 7.36056,6.3763525 7.36056,13.8365442 C7.36056,18.6112442 10.26816,22.7885525 14.46936,25.1759025 C6.87336,27.1409775 1.27896,33.3265858 0.36816,41.0051192 C0.27456,41.7953608 0.95016,42.4847442 1.81176,42.4847442 C2.55096,42.4847442 3.17256,41.9704775 3.25296,41.2910692 C4.20696,33.2068858 11.67336,26.9525608 20.60736,26.6677192 L21.57696,26.6677192 C29.33136,26.6677192 35.47056,20.9985942 35.47056,13.8365442 M21.57696,23.6840858 C15.76056,23.6840858 10.91496,19.2086358 10.91496,13.8365442 C10.59216,8.16631083 15.43896,3.69086083 21.57696,3.69086083 C27.43056,3.69086083 32.24016,8.13306083 32.24016,13.5372942 C32.23896,19.2086358 27.39336,23.6840858 21.57696,23.6840858 M32.72016,28.1573192 C31.75176,28.1251775 31.26936,28.7569275 31.26936,29.6524608 C31.26936,30.2498525 31.59336,30.5479942 31.91616,30.8461358 C35.47536,33.3110692 37.94616,37.0350692 38.57736,41.3232108 C38.67456,41.9871025 39.28776,42.4847442 40.01376,42.4847442 L40.02096,42.4847442 C40.90056,42.4847442 41.57256,41.7665442 41.45736,40.9607858 C40.74456,35.9588775 38.15736,31.7638358 34.04616,28.7790942 C34.04616,28.7790942 33.28176,28.1761608 32.72016,28.1573192" id="我的"></path>
                </g>
            </g>
        </g>
    </g>
</svg>