<?xml version="1.0" encoding="UTF-8"?>
<svg width="42px" height="45px" viewBox="0 0 42 45" version="1.1" xmlns="http://www.w3.org/2000/svg" xmlns:xlink="http://www.w3.org/1999/xlink">
    <!-- Generator: Sketch 52.2 (67145) - http://www.bohemiancoding.com/sketch -->
    <title>选_我的_slice</title>
    <desc>Created with Sketch.</desc>
    <defs>
        <linearGradient x1="50%" y1="0%" x2="50%" y2="100%" id="linearGradient-1">
            <stop stop-color="#FEF000" offset="0%"></stop>
            <stop stop-color="#F4AA00" offset="100%"></stop>
        </linearGradient>
    </defs>
    <g id="Page-1" stroke="none" stroke-width="1" fill="none" fill-rule="evenodd">
        <g id="画板" transform="translate(-648.000000, -1245.000000)" fill="url(#linearGradient-1)">
            <path d="M689.98686,1287.71298 C689.257412,1282.40561 686.615462,1277.95438 682.414087,1274.78736 C682.414087,1274.78736 682.167669,1274.58861 681.85137,1274.40868 L681.848918,1274.40516 C681.848918,1274.40516 679.240069,1272.72933 676.144513,1271.0735 C680.751682,1268.84024 683.869305,1264.28434 683.869305,1258.93229 C683.869305,1251.33286 677.598505,1245 669.346549,1245 C661.754161,1245 655.152351,1251.01651 655.152351,1258.93229 C655.152351,1263.99857 658.124085,1268.43098 662.414955,1270.9653 C654.65461,1273.04803 648.939171,1279.61139 648.008666,1287.75884 C647.914266,1288.59852 648.603258,1289.33 649.483499,1289.33 L688.512027,1289.33 L688.519382,1289.33 C689.416787,1289.33 690.104552,1288.56912 689.98686,1287.71298" id="选-我的"></path>
        </g>
    </g>
</svg>